<svg width="249px" height="115px" viewBox="0 0 249 115" version="1.1" xmlns="http://www.w3.org/2000/svg" xmlns:xlink="http://www.w3.org/1999/xlink">
    <!-- Generator: Sketch 52.2 (67145) - http://www.bohemiancoding.com/sketch -->
    <title>Logo/Boubyan</title>
    <desc>Created with Sketch.</desc>
    <g id="Logo/Boubyan" stroke="none" stroke-width="1" fill="none" fill-rule="evenodd">
        <g id="BB_Corporate_Brandmark_Primary_RGB-01" fill-rule="nonzero">
            <g id="Group" transform="translate(50.000000, 51.000000)" fill="#54585A">
                <g>
                    <polygon id="Rectangle-path" points="7.21208054 7.8971831 10.9516779 7.8971831 10.9516779 11.0471831 7.21208054 11.0471831"></polygon>
                    <path d="M14.112528,13.3542254 C14.112528,16.7260563 11.6194631,18.9443662 8.8147651,18.9443662 C6.14362416,18.9443662 3.60604027,16.3711268 3.60604027,13.4429577 C3.60604027,10.9140845 4.40738255,9.27253521 4.40738255,9.27253521 L0.578747204,9.27253521 C0.133557047,10.7366197 2.84217094e-14,11.6239437 2.84217094e-14,13.4429577 C2.84217094e-14,18.6338028 3.96219239,22.6267606 8.77024609,22.6267606 C13.8008949,22.6267606 17.7630872,19.0330986 17.7630872,13.4873239 L17.7630872,5.76760563 L14.112528,5.76760563 L14.112528,13.3542254 Z" id="Shape"></path>
                    <polygon id="Rectangle-path" points="40.2897092 19.4767606 44.0293065 19.4767606 44.0293065 22.6267606 40.2897092 22.6267606"></polygon>
                    <polygon id="Rectangle-path" points="45.6765101 19.4767606 49.4161074 19.4767606 49.4161074 22.6267606 45.6765101 22.6267606"></polygon>
                    <path d="M70.4290828,12.6443662 C70.4290828,13.7091549 69.8058166,14.2859155 68.8263982,14.2859155 L51.9982103,14.2859155 C50.3510067,14.2859155 49.3715884,13.265493 49.3715884,11.6239437 L49.3715884,6.65492958 L45.6765101,6.65492958 L45.6765101,12.156338 C45.6765101,13.7091549 44.9196868,14.3302817 43.4950783,14.3302817 L26.8004474,14.3302817 C25.8210291,14.3302817 25.2422819,13.7535211 25.2422819,12.6887324 L25.2422819,0.266197183 L21.5917226,0.266197183 L21.5917226,12.4225352 C21.5917226,13.9753521 21.9033557,17.9239437 26.5333333,17.9239437 L44.5635347,17.9239437 C46.2552573,17.9239437 47.6798658,17.1697183 48.347651,16.0161972 C49.0599553,16.9922535 50.2619687,17.9239437 52.2653244,17.9239437 L69.1825503,17.9239437 C73.7680089,17.9239437 74.1241611,13.9753521 74.1241611,12.4225352 L74.1241611,5.76760563 L70.4290828,5.76760563 L70.4290828,12.6443662 Z" id="Shape"></path>
                    <polygon id="Rectangle-path" points="69.5832215 19.4767606 73.3228188 19.4767606 73.3228188 22.6267606 69.5832215 22.6267606"></polygon>
                    <polygon id="Rectangle-path" points="109.47226 19.4767606 113.211857 19.4767606 113.211857 22.6267606 109.47226 22.6267606"></polygon>
                    <path d="M110.318121,12.6443662 C110.318121,13.7091549 109.694855,14.2859155 108.715436,14.2859155 L89.6612975,14.2859155 L89.6612975,5.76760563 L83.7402685,5.76760563 C79.7780761,5.76760563 77.2850112,8.29647887 77.2850112,11.6683099 C77.2850112,15.1732394 80.0897092,17.8795775 83.7402685,17.8795775 L85.7881432,17.8795775 C85.1203579,19.3880282 83.1170022,19.3880282 82.538255,19.3880282 C81.6478747,19.3880282 80.8020134,19.2105634 80.1787472,18.9887324 L81.1581655,22.2274648 C81.6478747,22.3605634 82.404698,22.493662 83.0724832,22.5380282 C85.6991051,22.6267606 89.1270694,21.5619718 89.6612975,17.8795775 L109.071588,17.8795775 C113.657047,17.8795775 114.013199,13.9309859 114.013199,12.378169 L114.013199,5.72323944 L110.318121,5.72323944 L110.318121,12.6443662 Z M85.9662192,14.2859155 L83.6512304,14.2859155 C82.0485459,14.2859155 81.1136465,13.043662 81.1136465,11.7126761 C81.1136465,10.4704225 82.0485459,9.05070423 83.6512304,9.05070423 L85.9662192,9.05070423 L85.9662192,14.2859155 Z" id="Shape"></path>
                    <path d="M137.118568,7.40915493 L135.782998,6.16690141 C135.560403,6.69929577 134.981655,6.61056338 134.892617,6.61056338 L133.111857,6.61056338 L133.111857,5.72323944 C133.111857,5.10211268 133.245414,4.61408451 133.824161,4.61408451 C134.135794,4.61408451 134.536465,4.7915493 134.580984,5.36830986 L136.58434,5.36830986 C136.450783,3.46056338 135.560403,2.61760563 133.824161,2.61760563 C131.865324,2.61760563 131.108501,4.12605634 131.108501,5.72323944 L131.108501,6.61056338 L129.995526,6.61056338 L129.37226,8.69577465 L134.75906,8.69577465 C135.560403,8.74014085 136.673378,8.38521127 137.118568,7.40915493 Z" id="Shape"></path>
                    <polygon id="Rectangle-path" points="167.881208 0.266197183 171.620805 0.266197183 171.620805 3.41619718 167.881208 3.41619718"></polygon>
                    <path d="M194.993289,5.76760563 L194.993289,12.6443662 C194.993289,13.7091549 194.370022,14.2859155 193.390604,14.2859155 L174.247427,14.2859155 C172.600224,14.2859155 171.620805,13.265493 171.620805,11.6239437 L171.620805,6.65492958 L167.925727,6.65492958 L167.925727,12.156338 C167.925727,13.7091549 167.168904,14.3302817 165.744295,14.3302817 L147.268904,14.3302817 C145.577181,14.3302817 144.642282,13.3098592 144.642282,11.6683099 L144.642282,0.266197183 L140.902685,0.266197183 L140.902685,12.6887324 C140.902685,13.7535211 140.323937,14.3302817 139.344519,14.3302817 L128.392841,14.3302817 C127.146309,14.3302817 126.16689,13.3985915 125.944295,12.4669014 C125.677181,11.2246479 126.478523,10.1598592 126.478523,10.1598592 C126.478523,10.1598592 125.365548,9.22816901 123.807383,7.8084507 C122.338255,9.71619718 122.293736,11.5352113 122.338255,12.4225352 C122.471812,15.2176056 125.142953,17.9239437 128.481879,17.9239437 L139.611633,17.9239437 C141.659508,17.9239437 142.861521,17.1253521 143.573826,16.1492958 C144.330649,17.0809859 145.488143,17.9239437 147.44698,17.9239437 L166.768233,17.9239437 C168.459955,17.9239437 169.884564,17.1697183 170.552349,16.0161972 C171.264653,16.9922535 172.466667,17.9239437 174.470022,17.9239437 L193.702237,17.9239437 C198.287696,17.9239437 198.643848,13.9753521 198.643848,12.4225352 L198.643848,5.76760563 L194.993289,5.76760563 Z" id="Shape"></path>
                    <polygon id="Rectangle-path" points="194.147427 19.4767606 197.887025 19.4767606 197.887025 22.6267606 194.147427 22.6267606"></polygon>
                </g>
                <g transform="translate(0.000000, 30.612676)" id="Shape">
                    <path d="M10.9516779,12.821831 L10.9516779,12.7774648 C11.9310962,12.378169 12.7324385,11.7126761 13.3557047,10.8697183 C13.9789709,9.98239437 14.290604,9.05070423 14.290604,7.98591549 C14.290604,3.77112676 11.441387,1.68591549 5.698434,1.68591549 C4.22930649,1.68591549 2.31498881,1.90774648 0,2.35140845 L0,24.1352113 C1.02393736,24.3126761 2.0033557,24.4457746 2.93825503,24.534507 C3.87315436,24.6232394 4.76353468,24.6676056 5.65391499,24.6676056 C11.9756152,24.6676056 15.1364653,22.493662 15.1364653,18.1901408 C15.1364653,16.8591549 14.7803132,15.7056338 14.0234899,14.7295775 C13.2666667,13.7535211 12.2872483,13.1323944 10.9516779,12.821831 Z M4.09574944,5.36830986 C4.40738255,5.32394366 4.71901566,5.27957746 5.03064877,5.23521127 C5.34228188,5.19084507 5.60939597,5.19084507 5.87651007,5.19084507 C7.16756152,5.19084507 8.14697987,5.32394366 8.77024609,5.63450704 C9.6606264,6.07816901 10.0612975,6.92112676 10.0612975,8.07464789 C10.0612975,10.0711268 8.72572707,11.0915493 6.05458613,11.0915493 L4.05123043,11.0915493 L4.05123043,5.36830986 L4.09574944,5.36830986 Z M5.92102908,21.0739437 C5.65391499,21.0739437 5.34228188,21.0739437 5.03064877,21.0295775 C4.71901566,20.9852113 4.40738255,20.9408451 4.09574944,20.8964789 L4.09574944,14.5964789 L6.18814318,14.5964789 C9.34899329,14.5964789 10.9071588,15.7056338 10.9071588,17.8795775 C10.9071588,20.0091549 9.21543624,21.0739437 5.92102908,21.0739437 Z"></path>
                    <path d="M25.2422819,7.67535211 C22.793736,7.67535211 20.7903803,8.47394366 19.2767338,10.0711268 C17.7630872,11.6683099 17.006264,13.7091549 17.006264,16.1492958 C17.006264,18.5894366 17.7630872,20.6302817 19.2322148,22.2274648 C20.7903803,23.8246479 22.793736,24.6232394 25.1977629,24.6232394 C27.6463087,24.6232394 29.6496644,23.8246479 31.163311,22.2274648 C32.6769575,20.6302817 33.4337808,18.5894366 33.4337808,16.1492958 C33.4337808,13.7091549 32.6769575,11.6683099 31.163311,10.0711268 C29.6941834,8.47394366 27.6908277,7.67535211 25.2422819,7.67535211 Z M28.2250559,19.6985915 C27.5127517,20.7633803 26.5333333,21.3401408 25.1977629,21.3401408 C23.8621924,21.3401408 22.882774,20.8077465 22.1704698,19.6985915 C21.5917226,18.8112676 21.3246085,17.6577465 21.3246085,16.193662 C21.3246085,14.7739437 21.5917226,13.6204225 22.1704698,12.6887324 C22.882774,11.6239437 23.8621924,11.0471831 25.1977629,11.0471831 C26.5333333,11.0471831 27.5127517,11.5795775 28.2250559,12.6887324 C28.8038031,13.6204225 29.0709172,14.7739437 29.0709172,16.193662 C29.0709172,17.6577465 28.8038031,18.8112676 28.2250559,19.6985915 Z"></path>
                    <path d="M50.2619687,20.7633803 L50.2619687,8.03028169 L46.3442953,8.03028169 L46.3442953,19.8760563 C46.3442953,19.9204225 46.3442953,20.0091549 46.3442953,20.1422535 C46.3442953,20.2309859 46.3888143,20.4084507 46.3888143,20.5859155 C45.1422819,21.0739437 44.0293065,21.2957746 43.0944072,21.2957746 C40.9129754,21.2957746 39.844519,20.2753521 39.844519,18.2788732 L39.844519,8.03028169 L35.9268456,8.03028169 L35.9268456,18.9 C35.9268456,22.7598592 38.2863535,24.6676056 43.0498881,24.6676056 C45.0087248,24.6676056 47.4572707,24.1352113 50.4845638,23.0704225 C50.3955257,22.5380282 50.3510067,22.0943662 50.3064877,21.7394366 C50.2619687,21.3401408 50.2619687,21.0295775 50.2619687,20.7633803 Z"></path>
                    <path d="M61.3917226,7.67535211 C60.0561521,7.67535211 58.8541387,7.98591549 57.7411633,8.56267606 L57.7411633,0.399295775 L53.8234899,0.399295775 L53.8234899,21.6507042 C53.8234899,21.8725352 53.8234899,22.1387324 53.7789709,22.4492958 C53.7344519,22.7598592 53.6899329,23.1591549 53.6454139,23.6028169 C55.5597315,24.3126761 57.6521253,24.6676056 59.8780761,24.6676056 C62.41566,24.6676056 64.5525727,23.8690141 66.2442953,22.271831 C67.9805369,20.6746479 68.8709172,18.6338028 68.8709172,16.193662 C68.8709172,13.7535211 68.247651,11.7570423 67.0011186,10.2042254 C65.6655481,8.51830986 63.7957494,7.67535211 61.3917226,7.67535211 Z M63.3950783,19.7429577 C62.549217,20.8077465 61.4362416,21.2957746 60.0116331,21.2957746 C59.0767338,21.2957746 58.3199105,21.1626761 57.6521253,20.9408451 C57.6966443,20.8521127 57.6966443,20.7190141 57.6966443,20.6302817 C57.6966443,20.5415493 57.6966443,20.4971831 57.6966443,20.4528169 L57.6966443,11.8457746 C58.3644295,11.3133803 59.2548098,11.0471831 60.3677852,11.0471831 C61.7478747,11.0471831 62.7718121,11.5795775 63.5286353,12.6 C64.1519016,13.5316901 64.4635347,14.6852113 64.4635347,16.1049296 C64.5080537,17.5690141 64.1519016,18.8112676 63.3950783,19.7429577 Z"></path>
                    <path d="M78.7096197,20.4084507 L74.035123,8.03028169 L69.6277405,8.03028169 L75.7268456,22.5823944 C76.2165548,23.6915493 76.795302,24.3570423 77.5521253,24.4901408 C76.5281879,27.0190141 74.8364653,28.6161972 72.3879195,29.2816901 L74.4357942,32.1211268 C77.2850112,31.5 79.3774049,29.1929577 80.8020134,25.2887324 L87.0346756,8.03028169 L82.8944072,8.03028169 L78.7096197,20.4084507 Z"></path>
                    <path d="M101.369799,12.9992958 C101.369799,11.1802817 100.791051,9.84929577 99.633557,8.91760563 C98.5651007,8.07464789 97.0959732,7.67535211 95.2261745,7.67535211 C92.9557047,7.67535211 90.8187919,8.16338028 88.7709172,9.09507042 L90.1064877,12.0676056 C91.6201342,11.4021127 93.1337808,11.0915493 94.6474273,11.0915493 C96.4727069,11.0915493 97.4076063,11.5795775 97.4076063,12.6 C97.4076063,13.3098592 96.517226,13.8866197 94.7809843,14.2415493 C92.1988814,14.8183099 90.5516779,15.2619718 89.8838926,15.6169014 C88.147651,16.5042254 87.2572707,17.8795775 87.2572707,19.7429577 C87.2572707,21.4732394 88.103132,22.8042254 89.7503356,23.6471831 C91.041387,24.3126761 92.6440716,24.6676056 94.6029083,24.6676056 C96.4281879,24.6676056 98.7431767,24.2683099 101.592394,23.4253521 C101.458837,22.5380282 101.369799,21.828169 101.369799,21.384507 L101.369799,12.9992958 Z M94.6474273,21.4288732 C92.5995526,21.4288732 91.6201342,20.7633803 91.6201342,19.4323944 C91.6201342,18.7225352 92.0208054,18.234507 92.8221477,17.8795775 C93.1782998,17.7021127 94.0241611,17.4802817 95.3597315,17.2140845 C96.4281879,16.9922535 97.0959732,16.7260563 97.4521253,16.3711268 L97.4521253,20.3640845 C97.4521253,20.4084507 97.4521253,20.4971831 97.4521253,20.6302817 C97.4521253,20.7190141 97.4966443,20.8521127 97.4966443,20.9852113 C96.517226,21.2514085 95.5823266,21.4288732 94.6474273,21.4288732 Z"></path>
                    <path d="M112.276957,7.67535211 C110.407159,7.67535211 107.914094,8.20774648 104.842282,9.31690141 C104.93132,9.84929577 104.975839,10.2929577 105.020358,10.6922535 C105.064877,11.0915493 105.064877,11.4021127 105.064877,11.6239437 L105.064877,24.3570423 L108.98255,24.3570423 L108.98255,12.5112676 C108.98255,12.4225352 108.98255,12.3338028 108.98255,12.2007042 C108.98255,12.1119718 108.938031,11.9788732 108.938031,11.8014085 C110.184564,11.3133803 111.297539,11.0915493 112.232438,11.0915493 C114.41387,11.0915493 115.482327,12.1119718 115.482327,14.1084507 L115.482327,24.3570423 L119.4,24.3570423 L119.4,13.4873239 C119.4,9.58309859 117.040492,7.67535211 112.276957,7.67535211 Z"></path>
                    <path d="M141.614989,12.821831 L141.614989,12.7774648 C142.594407,12.378169 143.395749,11.7126761 144.019016,10.8697183 C144.642282,9.98239437 144.953915,9.05070423 144.953915,7.98591549 C144.953915,3.77112676 142.104698,1.68591549 136.361745,1.68591549 C134.892617,1.68591549 132.9783,1.90774648 130.663311,2.35140845 L130.663311,24.1352113 C131.687248,24.3126761 132.666667,24.4457746 133.601566,24.534507 C134.536465,24.6232394 135.426846,24.6676056 136.317226,24.6676056 C142.638926,24.6676056 145.799776,22.493662 145.799776,18.1901408 C145.799776,16.8591549 145.443624,15.7056338 144.686801,14.7295775 C143.929978,13.7535211 142.90604,13.1323944 141.614989,12.821831 Z M134.75906,5.36830986 C135.070694,5.32394366 135.382327,5.27957746 135.69396,5.23521127 C136.005593,5.19084507 136.272707,5.19084507 136.539821,5.19084507 C137.830872,5.19084507 138.810291,5.32394366 139.433557,5.63450704 C140.323937,6.07816901 140.724609,6.92112676 140.724609,8.07464789 C140.724609,10.0711268 139.389038,11.0915493 136.717897,11.0915493 L134.714541,11.0915493 L134.714541,5.36830986 L134.75906,5.36830986 Z M136.58434,21.0739437 C136.317226,21.0739437 136.005593,21.0739437 135.69396,21.0295775 C135.382327,20.9852113 135.070694,20.9408451 134.75906,20.8964789 L134.75906,14.5964789 L136.851454,14.5964789 C140.012304,14.5964789 141.57047,15.7056338 141.57047,17.8795775 C141.57047,20.0091549 139.878747,21.0739437 136.58434,21.0739437 Z"></path>
                    <path d="M161.782103,12.9992958 C161.782103,11.1802817 161.203356,9.84929577 160.045861,8.91760563 C158.932886,8.07464789 157.508277,7.67535211 155.682998,7.67535211 C153.412528,7.67535211 151.275615,8.16338028 149.22774,9.09507042 L150.563311,12.0676056 C152.076957,11.4021127 153.590604,11.0915493 155.104251,11.0915493 C156.92953,11.0915493 157.86443,11.5795775 157.86443,12.6 C157.86443,13.3098592 156.974049,13.8866197 155.237808,14.2415493 C152.655705,14.8183099 151.008501,15.2619718 150.340716,15.6169014 C148.604474,16.5042254 147.714094,17.8795775 147.714094,19.7429577 C147.714094,21.4732394 148.559955,22.8042254 150.207159,23.6471831 C151.49821,24.3126761 153.100895,24.6676056 155.059732,24.6676056 C156.885011,24.6676056 159.2,24.2683099 162.049217,23.4253521 C161.91566,22.5380282 161.826622,21.828169 161.826622,21.384507 L161.826622,12.9992958 L161.782103,12.9992958 Z M155.104251,21.4288732 C153.056376,21.4288732 152.076957,20.7633803 152.076957,19.4323944 C152.076957,18.7225352 152.477629,18.234507 153.278971,17.8795775 C153.635123,17.7021127 154.480984,17.4802817 155.816555,17.2140845 C156.885011,16.9922535 157.552796,16.7260563 157.908949,16.3711268 L157.908949,20.3640845 C157.908949,20.4084507 157.908949,20.4971831 157.908949,20.6302817 C157.908949,20.7190141 157.953468,20.8521127 157.953468,20.9852113 C156.974049,21.2514085 155.994631,21.4288732 155.104251,21.4288732 Z"></path>
                    <path d="M172.7783,7.67535211 C170.908501,7.67535211 168.415436,8.20774648 165.343624,9.31690141 C165.432662,9.84929577 165.477181,10.2929577 165.5217,10.6922535 C165.566219,11.0915493 165.566219,11.4021127 165.566219,11.6239437 L165.566219,24.3570423 L169.483893,24.3570423 L169.483893,12.5112676 C169.483893,12.4225352 169.483893,12.3338028 169.483893,12.2007042 C169.483893,12.1119718 169.439374,11.9788732 169.439374,11.8014085 C170.685906,11.3133803 171.798881,11.0915493 172.733781,11.0915493 C174.915213,11.0915493 175.983669,12.1119718 175.983669,14.1084507 L175.983669,24.3570423 L179.901342,24.3570423 L179.901342,13.4873239 C179.945861,9.58309859 177.541834,7.67535211 172.7783,7.67535211 Z"></path>
                    <path d="M191.609843,16.0605634 C191.253691,15.6612676 190.763982,15.3507042 190.229754,15.1732394 L197.797987,7.98591549 L192.6783,7.98591549 L187.380537,13.5316901 L187.380537,0.354929577 L183.418345,0.354929577 L183.418345,24.2683099 L187.336018,24.2683099 L187.336018,16.6816901 C187.959284,17.1253521 188.448993,17.5246479 188.760626,17.8795775 L193.969351,24.2239437 L198.732886,24.2239437 L191.609843,16.0605634 Z"></path>
                </g>
            </g>
            <g id="Group" fill="#D22630">
                <path d="M95.7208633,3.45428571 C96.523741,3.49857143 96.8359712,2.43571429 96.0776978,2.25857143 C89.8330935,0.797142857 83.5884892,0.0885714286 77.3438849,0.0885714286 C45.7194245,0.0885714286 15.8791367,18.5557143 1.02589928,48.3157143 C-0.401438849,51.1942857 0.312230216,54.1614286 3.47913669,55.3128571 L20.5625899,61.4242857 C23.2388489,62.3985714 26.2273381,61.1142857 27.2086331,58.59 C41.4820144,22.94 66.2374101,2.52428571 95.7208633,3.45428571" id="Shape"></path>
                <path d="M123.420144,27.3242857 C115.748201,14.3042857 103.615827,7.48428571 90.1453237,7.48428571 C88.7625899,7.48428571 87.3798561,7.57285714 85.952518,7.70571429 C85.7741007,7.75 85.5956835,7.92714286 85.5064748,8.10428571 C85.4618705,8.23714286 85.4172662,8.37 85.4172662,8.54714286 C85.4172662,8.90142857 85.6402878,9.21142857 85.9079137,9.34428571 L86.1755396,9.38857143 C92.1971223,10.9385714 96.3899281,14.8357143 100.404317,22.1871429 C100.582734,22.4971429 101.16259,23.6485714 102.946763,24.0471429 L121.992806,29.5828571 C122.126619,29.6271429 122.215827,29.6271429 122.34964,29.6271429 C123.107914,29.6271429 123.68777,28.9628571 123.68777,28.1214286 C123.68777,27.8557143 123.598561,27.59 123.420144,27.3242857" id="Shape"></path>
            </g>
        </g>
    </g>
</svg>